<svg xmlns="http://www.w3.org/2000/svg" version="1.1" xmlns:xlink="http://www.w3.org/1999/xlink" xmlns:svgjs="http://svgjs.dev/svgjs" width="1000" height="623" viewBox="0 0 1000 623"><g transform="matrix(1,0,0,1,-0.6060606060606233,105.00474796548485)"><svg viewBox="0 0 396 247" data-background-color="#ffffff" preserveAspectRatio="xMidYMid meet" height="623" width="1000" xmlns="http://www.w3.org/2000/svg" xmlns:xlink="http://www.w3.org/1999/xlink"><g id="tight-bounds" transform="matrix(1,0,0,1,0.2400000000000091,-0.09999999999999432)"><svg viewBox="0 0 395.52 247.2" height="247.2" width="395.52"><g><svg></svg></g><g><svg viewBox="0 0 395.52 247.2" height="247.2" width="395.52"><g transform="matrix(1,0,0,1,75.54432,75.4984960221389)"><svg viewBox="0 0 244.43135999999998 96.2030079557222" height="96.2030079557222" width="244.43135999999998"><g><svg viewBox="0 0 244.43135999999998 96.2030079557222" height="96.2030079557222" width="244.43135999999998"><g><svg viewBox="0 0 244.43135999999998 96.2030079557222" height="96.2030079557222" width="244.43135999999998"><g transform="matrix(1,0,0,1,0,59.4573183899028)"><svg viewBox="0 0 244.43135999999998 36.745689565819404" height="36.745689565819404" width="244.43135999999998"><g><svg viewBox="0 0 244.43135999999998 36.745689565819404" height="36.745689565819404" width="244.43135999999998"><g><svg viewBox="0 0 244.43135999999998 36.745689565819404" height="36.745689565819404" width="244.43135999999998"><g transform="matrix(1,0,0,1,0,0)"><svg width="244.43135999999998" viewBox="0.75 -37.5 252.75 38" height="36.745689565819404" data-palette-color="#8d021f"><path d="M16.28 0L10.83 0 10.83-29.9 0.75-29.9 0.75-35 26.35-35 26.35-29.9 16.28-29.9 16.28 0ZM44.05 0L31.02 0 31.02-35 44.05-35Q49.1-35 53.01-32.93 56.92-30.85 59.15-26.94 61.37-23.03 61.37-17.5L61.37-17.5Q61.37-11.98 59.15-8.06 56.92-4.15 53.01-2.08 49.1 0 44.05 0L44.05 0ZM36.47-30.1L36.47-4.9 44.05-4.9Q47.8-4.9 50.32-6.46 52.85-8.03 54.14-10.86 55.42-13.7 55.42-17.5L55.42-17.5Q55.42-21.3 54.14-24.14 52.85-26.98 50.32-28.54 47.8-30.1 44.05-30.1L44.05-30.1 36.47-30.1ZM77.87 0.5L77.87 0.5Q73.45 0.5 70.47-1.29 67.5-3.08 65.98-6.04 64.47-9 64.47-12.53L64.47-12.53Q64.47-15.95 65.88-18.82 67.3-21.7 70.01-23.44 72.72-25.18 76.57-25.18L76.57-25.18Q79.84-25.18 82.25-23.85 84.65-22.53 85.93-20.15 87.22-17.78 87.22-14.6L87.22-14.6Q87.22-13.95 87.16-13.25 87.09-12.55 86.95-11.78L86.95-11.78 69.87-11.78Q70.2-8.85 71.42-7.14 72.65-5.43 74.47-4.7 76.3-3.98 78.42-3.98L78.42-3.98Q80.32-3.98 82.17-4.41 84.02-4.85 85.65-5.68L85.65-5.68 86.12-1.4Q84.7-0.73 82.62-0.11 80.55 0.5 77.87 0.5ZM70.17-15.35L70.17-15.35 81.87-15.35Q81.87-16.82 81.32-18.04 80.77-19.25 79.58-19.98 78.4-20.7 76.52-20.7L76.52-20.7Q73.77-20.7 72.26-19.25 70.75-17.8 70.17-15.35ZM103.37 0L98.22 0 88.77-24.7 94.24-24.7 100.79-6.13 107.32-24.7 112.79-24.7 103.37 0ZM121.32 0L116.09 0 116.09-24.7 121.32-24.7 121.32 0ZM121.32-29.5L116.09-29.5 116.09-35 121.32-35 121.32-29.5ZM135.44 0.5L133.64 0.5Q131.34 0.5 129.94-0.38 128.54-1.25 127.9-2.66 127.26-4.08 127.26-5.68L127.26-5.68 127.26-37.5 132.49-37.5 132.49-8.25Q132.49-6.2 132.75-5.24 133.01-4.28 133.78-4 134.54-3.73 136.04-3.73L136.04-3.73 135.44 0.5ZM157.46 0L151.86 0 151.86-35 163.81-35Q167.53-35 170.26-33.84 172.98-32.68 174.44-30.18 175.91-27.68 175.91-23.68L175.91-23.68Q175.91-19.68 174.44-17.14 172.98-14.6 170.27-13.4 167.56-12.2 163.86-12.2L163.86-12.2 157.46-12.2 157.46 0ZM157.46-30.28L157.46-16.93 163.13-16.93Q166.73-16.93 168.53-18.55 170.33-20.18 170.33-23.6L170.33-23.6Q170.33-27.05 168.58-28.66 166.83-30.28 163.08-30.28L163.08-30.28 157.46-30.28ZM184.93 0L179.68 0 179.68-37.5 184.93-37.5 184.93-20.73 183.43-21.25Q185.08-22.95 187.02-24.06 188.95-25.18 191.83-25.18L191.83-25.18Q195.06-25.18 197.16-23.74 199.25-22.3 200.28-19.73 201.31-17.15 201.31-13.75L201.31-13.75 201.31 0 196.08 0 196.08-13.25Q196.08-17.07 194.75-18.89 193.43-20.7 190.58-20.7L190.58-20.7Q188.31-20.7 186.69-19.55 185.08-18.4 184.03-16.48L184.03-16.48 184.93-19.48 184.93 0ZM212.6 0.5L212.6 0.5Q210.45 0.5 208.78-0.41 207.1-1.33 206.14-2.95 205.18-4.58 205.18-6.78L205.18-6.78Q205.18-8.88 206.13-10.36 207.08-11.85 208.65-12.85 210.23-13.85 212.12-14.44 214-15.03 215.95-15.3 217.9-15.58 219.58-15.6L219.58-15.6Q219.55-18.53 218.33-19.56 217.1-20.6 214.6-20.6L214.6-20.6Q213.1-20.6 211.53-20.16 209.95-19.73 207.98-18.53L207.98-18.53 207.38-22.78Q209.18-23.88 211.4-24.53 213.63-25.18 216-25.18L216-25.18Q218.98-25.18 220.93-24.13 222.88-23.08 223.85-20.65 224.83-18.23 224.83-14.15L224.83-14.15 224.83-8.4Q224.83-6.6 224.99-5.59 225.15-4.58 225.7-4.15 226.25-3.73 227.38-3.73L227.38-3.73 227.98-3.73 227.33 0.5 226.18 0.5Q224.33 0.5 223.19 0.1 222.05-0.3 221.35-1.04 220.65-1.78 220.18-2.8L220.18-2.8Q218.85-1.3 216.89-0.4 214.93 0.5 212.6 0.5ZM214.2-3.6L214.2-3.6Q215.6-3.6 217.09-4.3 218.58-5 219.6-6.25L219.6-6.25 219.6-12.05Q216.8-11.93 214.79-11.39 212.78-10.85 211.69-9.78 210.6-8.7 210.6-7.03L210.6-7.03Q210.6-5.23 211.55-4.41 212.5-3.6 214.2-3.6ZM236.63 0L231.4 0 231.4-24.7 235.88-24.7 236.5-20.03 234.9-21.28Q236.93-23.38 239.13-24.28 241.33-25.18 243.73-25.18L243.73-25.18Q248.85-25.18 251.18-22.04 253.5-18.9 253.5-13.7L253.5-13.7 253.5 0 248.28 0 248.28-13.48Q248.28-17.2 246.95-18.95 245.63-20.7 242.48-20.7L242.48-20.7Q240.15-20.7 238.39-19.64 236.63-18.57 235.83-16.48L235.83-16.48 236.63-19.35 236.63 0Z" opacity="1" transform="matrix(1,0,0,1,0,0)" fill="#8d021f" class="undefined-text-0" data-fill-palette-color="primary" id="text-0"></path></svg></g></svg></g></svg></g></svg></g><g transform="matrix(1,0,0,1,65.60190859250775,0)"><svg viewBox="0 0 113.22754281498447 50.78254297996242" height="50.78254297996242" width="113.22754281498447"><g><svg xmlns="http://www.w3.org/2000/svg" xmlns:xlink="http://www.w3.org/1999/xlink" version="1.1" x="0" y="0" viewBox="8.392014231750874 73.01436543005744 269.2835190349813 120.7736345699426" enable-background="new 0 0 283.46 283.46" xml:space="preserve" height="50.78254297996242" width="113.22754281498447" class="icon-icon-0" data-fill-palette-color="accent" id="icon-0"><path fill="#8d021f" d="M277.474 155.815c-0.016-0.187-0.027-0.373-0.044-0.56-0.095-1.11-0.747-2.037-1.658-2.535-1.58-7.743-5.858-13.479-12.562-16.711-12.53-6.041-29.877-7.331-40.238-8.104-1.176-0.086-2.293-0.17-3.299-0.252l-0.006-0.239c-0.062-1.764-1.545-3.143-3.304-3.085-1.452 0.049-2.643 1.059-2.985 2.399-2.401-0.521-4.844-1.153-7.319-1.888l-0.028-0.834c-0.059-1.764-1.553-3.144-3.303-3.087-1.268 0.043-2.331 0.819-2.812 1.906-2.457-0.885-4.949-1.875-7.468-2.961l-0.051-2.632c-0.036-1.765-1.483-3.162-3.26-3.131-1.613 0.032-2.919 1.254-3.106 2.811-2.283-1.117-4.59-2.312-6.912-3.584l-0.074-4.606c-0.028-1.764-1.474-3.165-3.248-3.144-1.766 0.028-3.172 1.482-3.144 3.246l0.009 0.584c-2.078-1.375-4.332-2.945-6.66-4.622l-0.09-5.764c-0.027-1.764-1.488-3.171-3.246-3.146-1.766 0.027-3.174 1.481-3.146 3.246l0.008 0.59c-0.005 0.086-0.01 0.174-0.008 0.263v0.039c-2.271-1.707-4.526-3.432-6.681-5.102l-0.074-5.923c-0.021-1.765-1.475-3.178-3.236-3.155-1.766 0.023-3.177 1.472-3.154 3.236l0.008 0.782c-5.208-4.128-8.854-7.124-8.953-7.207-0.681-0.56-1.562-0.813-2.438-0.702-0.875 0.113-1.664 0.582-2.181 1.295-12.545 17.325-39.87 26.318-60.579 26.318-0.147 0-0.299 0-0.445-0.001-15.028-0.095-28.063-2.291-38.293-6.406 1.126-3.335 6.49-20.191 2.271-26.917-1.133-1.806-2.83-2.898-4.906-3.157-2.099-0.263-4.023 0.333-5.57 1.721-4.367 3.918-4.586 13.148-4.438 22.268 0.018 1.154 0.04 2.458 0.004 2.874-0.042 0.213-0.062 0.425-0.062 0.633-2.619 3.604-14.218 21.243-12.157 48.499 0.399 5.286 1.356 11.271 2.84 17.815-0.151 0.353-0.243 0.736-0.257 1.144-0.005 0.171 0.006 0.339 0.026 0.502-0.609 1.511-0.913 2.886-0.913 4.162 0 9.796 5.41 15.413 14.843 15.413 5.242 0 52.759 1.727 94.681 3.252 35.844 1.303 66.799 2.43 69.807 2.43 0.363 0 36.844-0.254 58.887-9.33 8.437-3.476 19.138-8.647 27.09-17.91 0.335-0.389 0.663-0.789 0.984-1.19 0.515-0.537 0.847-1.251 0.883-2.052 0.037-0.78 0.07-1.363 0.096-1.831C277.72 159.384 277.708 159.25 277.474 155.815zM135.899 89.647c2.359 1.914 6.156 4.965 10.574 8.419l0.065 5.298c0.023 1.751 1.449 3.155 3.196 3.155 0.015 0 0.027 0 0.041 0 1.767-0.023 3.179-1.472 3.155-3.237l-0.003-0.23c2.212 1.684 4.476 3.382 6.715 5.024l0.042 2.643c0.027 1.747 1.452 3.145 3.195 3.145 0.016 0 0.033 0 0.051 0 1.135-0.018 2.117-0.626 2.671-1.525 2.583 1.796 5.024 3.414 7.183 4.729l0.033 2.076c0.027 1.747 1.453 3.144 3.194 3.144 0.019 0 0.034 0 0.053 0 1.256-0.022 2.327-0.763 2.832-1.825 2.427 1.272 4.837 2.464 7.224 3.572l0.051 2.508c0.035 1.741 1.459 3.131 3.193 3.131 0.021 0 0.043 0 0.064-0.001 1.623-0.032 2.935-1.268 3.109-2.837 2.44 0.996 4.861 1.9 7.254 2.715l0.015 0.444c0.062 1.728 1.479 3.087 3.194 3.087 0.035 0 0.07 0 0.108-0.001 1.168-0.039 2.167-0.704 2.69-1.659 2.623 0.739 5.209 1.36 7.759 1.87 0.373 1.359 1.616 2.349 3.077 2.349 0.035 0 0.072-0.001 0.107-0.002 1.143-0.039 2.121-0.674 2.654-1.592 0.952 0.078 1.98 0.154 3.098 0.237 2.379 0.176 5.147 0.385 8.135 0.67-2.996 1.493-6.945 2.337-11.736 2.474-8.992 0.256-20.281-2.042-32.666-6.648-17.05-6.342-37.84-20.634-54.546-32.12-0.995-0.684-1.977-1.358-2.944-2.022C131.44 94.41 133.847 92.067 135.899 89.647zM141.905 176.734l-11.332-1.865c-0.512-0.087-1.023-0.173-1.533-0.258-3.765-0.631-7.557-1.264-11.34-1.881l40.26-49.129c2.079 1.253 4.158 2.473 6.229 3.644l11.435 5.964c0.474 0.223 0.943 0.437 1.414 0.652L141.905 176.734zM29.556 79.554c0.133-0.118 0.209-0.172 0.509-0.136 0.132 0.017 0.164 0.02 0.283 0.212 1.693 2.697-0.056 12.735-2.689 20.803-0.141-0.077-0.279-0.154-0.418-0.23 0.038-0.698 0.025-1.667 0-3.242C27.18 93.226 26.994 81.853 29.556 79.554zM24.759 106.131c11.814 6.313 27.971 9.697 46.986 9.816 13.578 0.077 27.31-2.899 39.727-8.628 4.261-1.966 8.239-4.207 11.852-6.646 1.541 1.056 3.122 2.142 4.738 3.253 4.104 2.821 8.457 5.812 12.941 8.814l-46.382 56.598c-4.295-0.527-8.462-0.967-12.398-1.253-1.278-0.092-2.629-0.187-4.036-0.276-0.371-18.824-5.215-40.481-38.471-51.95-5.302-1.828-10.896-4.621-16.184-7.677C23.98 107.394 24.396 106.708 24.759 106.131zM18.373 119.958c5.563 3.142 11.459 6.017 17.176 7.988 25.21 8.693 29.444 23.084 29.853 39.124-9.959-0.521-21.225-1.006-32.035-1.428-2.552-3.088-11.175-13.911-16.448-25.313-0.371-0.803-0.939-2.504-1.514-6.055-0.027-0.165-0.053-0.324-0.079-0.479C15.971 128.435 17.124 123.782 18.373 119.958zM24.954 165.32c-2.51-0.092-4.963-0.182-7.343-0.266-1.155-5.159-1.959-9.926-2.4-14.225C18.555 156.591 22.207 161.716 24.954 165.32zM120.088 184.971c-41.978-1.527-89.555-3.257-94.914-3.257-5.923 0-8.451-2.698-8.451-9.021 0-0.199 0.039-0.605 0.26-1.265 21.118 0.745 48.536 1.852 64.778 3.032 13.674 0.994 30.22 3.77 46.221 6.453 12.725 2.133 25.716 4.312 37.77 5.705C153.126 186.173 136.835 185.582 120.088 184.971zM186.853 181.714c-4.208-0.041-8.729-0.305-13.463-0.731l-8.324-0.96 32.158-39.241 3.791 1.068c5.961 1.31 11.525 1.987 16.527 1.987 0.518 0 1.029-0.008 1.535-0.021 7.479-0.215 13.488-1.988 17.707-5.181 7.728 1.284 13.883 3.058 18.752 5.406 2.965 1.429 5.274 3.521 6.859 6.216 1.533 2.604 2.443 5.831 2.705 9.627 0.09 1.297 0.141 2.053 0.165 2.616C252.843 175.48 226.082 182.085 186.853 181.714z" data-fill-palette-color="accent"></path></svg></g></svg></g><g></g></svg></g></svg></g></svg></g><g><path d="M89.533 66.824A122.216 122.216 0 0 1 305.987 66.824L302.673 66.824A118.902 118.902 0 0 0 92.847 66.824L89.533 66.824M89.533 180.376A122.216 122.216 0 0 0 305.987 180.376L302.673 180.376A118.902 118.902 0 0 1 92.847 180.376L89.533 180.376" fill="#8d021f" stroke="transparent" data-fill-palette-color="tertiary"></path></g></svg></g><defs></defs></svg><rect width="395.52" height="247.2" fill="none" stroke="none" visibility="hidden"></rect></g></svg></g></svg>